<?xml version="1.0" encoding="utf-8"?>
<!-- Generator: Adobe Illustrator 21.1.0, SVG Export Plug-In . SVG Version: 6.00 Build 0)  -->
<!DOCTYPE svg PUBLIC "-//W3C//DTD SVG 1.1//EN" "http://www.w3.org/Graphics/SVG/1.1/DTD/svg11.dtd">
<svg version="1.1" id="Layer_1" xmlns="http://www.w3.org/2000/svg" xmlns:xlink="http://www.w3.org/1999/xlink" x="0px" y="0px"
	 viewBox="0 0 40 40" style="enable-background:new 0 0 40 40;" xml:space="preserve">
<style type="text/css">
	.st0{fill:#231F20;}
	.st1{fill:#EAE0D7;}
	.st2{fill:#94612B;}
	.st3{fill:#231F20;stroke:#231F20;stroke-width:0.5;stroke-miterlimit:10;}
	.st4{fill:#DDC18A;}
	.st5{fill:#E8DBC1;}
</style>
<g>
	<g>
		<g>
			<g>
				<path class="st0" d="M38.2,1.6c-0.7-0.7-1.7-1.1-2.7-1.1H4.3c-1.1,0-2,0.4-2.8,1.2C0.8,2.4,0.4,3.3,0.4,4.4v31.2
					c0,1.1,0.4,2,1.2,2.8c0.7,0.7,1.7,1.1,2.7,1.1h31.2c1.1,0,2-0.4,2.8-1.2c0.7-0.7,1.1-1.7,1.1-2.7V4.4C39.4,3.3,39,2.4,38.2,1.6z
					"/>
			</g>
		</g>
		<path class="st1" d="M36,3.9c-0.6-0.6-1.5-1-2.4-1H6.2c-0.9,0-1.8,0.3-2.4,1c-0.6,0.6-1,1.5-1,2.4v27.4c0,0.9,0.3,1.8,1,2.4
			c0.6,0.6,1.5,1,2.4,1h27.4c0.9,0,1.8-0.3,2.4-1c0.6-0.6,1-1.5,1-2.4V6.3C37,5.4,36.7,4.5,36,3.9z"/>
	</g>
</g>
<g>
	<polygon class="st2" points="7.7,25.9 13.9,25.9 12.9,32.2 8.5,32.2 	"/>
	<path class="st3" d="M14.2,24.6c-0.3,0-0.3,0.1-0.3,0.1l-1.1,6.8c0,0.1-0.2,0.2-0.3,0.2H9.1c-0.2,0-0.3-0.1-0.3-0.2l-1.1-6.8
		c0,0-0.1-0.1-0.3-0.1c-0.2,0-0.5,0.2-0.4,0.3l1.4,7.5c0,0.2,0.2,0.3,0.4,0.3h4.2c0.2,0,0.4-0.1,0.4-0.3l1.4-7.5
		C14.7,24.8,14.5,24.6,14.2,24.6z"/>
</g>
<g>
	<polygon class="st4" points="16.1,12.7 29.7,12.7 27.4,31.2 18,31.2 	"/>
	<path class="st0" d="M30.4,8.9c-0.7-0.1-0.7,0.3-0.7,0.3l-2.4,19.9c0,0.4-0.4,0.7-0.7,0.7h-7.4c-0.4,0-0.7-0.3-0.7-0.7L16.1,9.2
		c0,0-0.2-0.4-0.7-0.3c-0.5,0.1-1,0.5-0.9,1l3,22c0.1,0.5,0.4,0.8,0.9,0.8h9.1c0.5,0,0.8-0.3,0.9-0.8l3-22C31.3,9.4,30.9,9,30.4,8.9
		z"/>
	<circle class="st5" cx="20.8" cy="16" r="1.2"/>
	<circle class="st5" cx="23.5" cy="18.8" r="0.7"/>
	<circle class="st5" cx="21.7" cy="22.2" r="0.5"/>
	<circle class="st5" cx="23.2" cy="24.7" r="0.3"/>
	<circle class="st5" cx="22" cy="28.3" r="0.1"/>
	<circle class="st5" cx="22.6" cy="26.9" r="0.2"/>
</g>
</svg>
