<?xml version="1.0" encoding="utf-8"?>
<!-- Generator: Adobe Illustrator 21.1.0, SVG Export Plug-In . SVG Version: 6.00 Build 0)  -->
<!DOCTYPE svg PUBLIC "-//W3C//DTD SVG 1.1//EN" "http://www.w3.org/Graphics/SVG/1.1/DTD/svg11.dtd">
<svg version="1.1" id="Layer_1" xmlns="http://www.w3.org/2000/svg" xmlns:xlink="http://www.w3.org/1999/xlink" x="0px" y="0px"
	 viewBox="0 0 40 40" style="enable-background:new 0 0 40 40;" xml:space="preserve">
<style type="text/css">
	.st0{fill:#231F20;}
	.st1{fill:#EAE0D7;}
	.st2{fill:url(#SVGID_1_);}
	.st3{fill:#94612B;}
	.st4{fill:#231F20;stroke:#231F20;stroke-width:0.5;stroke-miterlimit:10;}
	.st5{fill:#DDC18A;}
	.st6{fill:#E8DBC1;}
</style>
<g>
	<g>
		<g>
			<g>
				<path class="st0" d="M38.2,1.6c-0.7-0.7-1.7-1.1-2.7-1.1H4.3c-1.1,0-2,0.4-2.8,1.2C0.8,2.4,0.4,3.3,0.4,4.4v31.2
					c0,1.1,0.4,2,1.2,2.8c0.7,0.7,1.7,1.1,2.7,1.1h31.2c1.1,0,2-0.4,2.8-1.2c0.7-0.7,1.1-1.7,1.1-2.7V4.4C39.4,3.3,39,2.4,38.2,1.6z
					"/>
			</g>
		</g>
		<path class="st1" d="M36,3.9c-0.6-0.6-1.5-1-2.4-1H6.2c-0.9,0-1.8,0.3-2.4,1c-0.6,0.6-1,1.5-1,2.4v27.4c0,0.9,0.3,1.8,1,2.4
			c0.6,0.6,1.5,1,2.4,1h27.4c0.9,0,1.8-0.3,2.4-1c0.6-0.6,1-1.5,1-2.4V6.3C37,5.4,36.7,4.5,36,3.9z"/>
	</g>
</g>
<linearGradient id="SVGID_1_" gradientUnits="userSpaceOnUse" x1="11.9061" y1="20.9199" x2="28.3674" y2="20.9199">
	<stop  offset="4.969952e-02" style="stop-color:#9E611C"/>
	<stop  offset="0.3478" style="stop-color:#D1B594"/>
	<stop  offset="0.3756" style="stop-color:#CBAB86"/>
	<stop  offset="0.4475" style="stop-color:#BD9465"/>
	<stop  offset="0.5254" style="stop-color:#B2814A"/>
	<stop  offset="0.6101" style="stop-color:#A97336"/>
	<stop  offset="0.7051" style="stop-color:#A36927"/>
	<stop  offset="0.8187" style="stop-color:#9F631F"/>
	<stop  offset="1" style="stop-color:#9E611C"/>
</linearGradient>
<path class="st2" d="M27.7,15.7h-15c-0.1,0.3-0.2,0.7-0.3,1c-1.2,4.3,0.4,7.6,4.1,9.1c0.2,0.1,1.3,0.2,3.1,0.3l3.3,0
	c0.3,0,0.6,0,0.8-0.1c3.8-1.5,5.5-4.6,4.4-8.9C27.9,16.6,27.8,16.2,27.7,15.7z"/>
<g>
	<polygon class="st3" points="80.5,37.1 86.7,37.1 85.7,43.4 81.3,43.4 	"/>
	<path class="st4" d="M87,35.8c-0.3,0-0.3,0.1-0.3,0.1l-1.1,6.8c0,0.1-0.2,0.2-0.3,0.2h-3.4c-0.2,0-0.3-0.1-0.3-0.2l-1.1-6.8
		c0,0-0.1-0.1-0.3-0.1c-0.2,0-0.5,0.2-0.4,0.3l1.4,7.5c0,0.2,0.2,0.3,0.4,0.3h4.2c0.2,0,0.4-0.1,0.4-0.3l1.4-7.5
		C87.5,36,87.3,35.8,87,35.8z"/>
</g>
<g>
	<polygon class="st5" points="83.4,12.7 97,12.7 94.7,31.2 85.3,31.2 	"/>
	<path class="st0" d="M97.7,8.9C97,8.8,97,9.2,97,9.2l-2.4,19.9c0,0.4-0.4,0.7-0.7,0.7h-7.4c-0.4,0-0.7-0.3-0.7-0.7L83.4,9.2
		c0,0-0.2-0.4-0.7-0.3c-0.5,0.1-1,0.5-0.9,1l3,22c0.1,0.5,0.4,0.8,0.9,0.8h9.1c0.5,0,0.8-0.3,0.9-0.8l3-22C98.6,9.4,98.2,9,97.7,8.9
		z"/>
	<circle class="st6" cx="88.1" cy="16" r="1.2"/>
	<circle class="st6" cx="90.8" cy="18.8" r="0.7"/>
	<circle class="st6" cx="89" cy="22.2" r="0.5"/>
	<circle class="st6" cx="90.5" cy="24.7" r="0.3"/>
	<circle class="st6" cx="89.3" cy="28.3" r="0.1"/>
	<circle class="st6" cx="89.9" cy="26.9" r="0.2"/>
</g>
<g>
	<g>
		<path d="M97.5,51.4c1.9,0,3.8,0,5.7,0c0.2,0,0.6,0.1,0.7,0.3c1.1,2.6,2.3,5.3,3,8c1.3,5-0.9,8.5-5.8,10.1
			c-1.1,0.3-2.2,1.8-2.3,3.3c-0.1,1.5,0.4,2.6,1.7,3.2c0.7,0.3,1.5,0.5,2.2,0.8c0.2,0.1,0.3,0.3,0.4,0.4c-0.2,0.1-0.3,0.3-0.5,0.3
			c-3.4,0-6.7,0-10.1,0c-0.2,0-0.4-0.2-0.5-0.3c0.2-0.1,0.3-0.4,0.5-0.4c0.7-0.3,1.3-0.4,2-0.7c2.1-1,2.4-3.8,0.9-5.5
			c-0.7-0.7-1.4-1-2.2-1.4c-4.4-1.7-6.3-5.4-4.9-10.1c0.8-2.6,1.9-5,2.9-7.5c0.1-0.2,0.5-0.4,0.7-0.4C93.7,51.4,95.6,51.4,97.5,51.4
			z"/>
	</g>
</g>
<path d="M23.6,26.2c4.7-1.4,6.7-4.8,5.5-9.5c-0.7-2.6-1.9-5-2.8-7.5C26.2,9.1,25.8,9,25.6,9c-0.1,0-0.3,0.1-0.3,0.3
	c0.8,2.3,1.7,4.4,2.3,6.8c1,4.3-0.5,7.5-4.1,8.9c-0.2,0.1-0.5,0.1-0.7,0.1l-3.1,0c-1.6,0-2.6-0.2-2.8-0.3c-3.4-1.5-4.9-4.8-3.8-9.1
	c0.6-2.3,1.5-4.2,2.2-6.5C15.3,9.1,15.1,9,15,9c-0.2,0-0.6,0.2-0.7,0.3c-0.9,2.3-2,4.7-2.7,7.1c-1.3,4.5,0.4,7.9,4.6,9.5
	c0.8,0.3,1.5,0.6,2.1,1.3c1.5,1.6,1.1,4.2-0.8,5.2c-0.6,0.3-1.2,0.4-1.9,0.7c-0.2,0.1-0.3,0.3-0.5,0.4c0.2,0.1,0.3,0.3,0.5,0.3
	c3.2,0,6.3,0,9.5,0c0.2,0,0.3-0.2,0.5-0.3c-0.1-0.1-0.3-0.3-0.4-0.4c-0.7-0.3-1.4-0.5-2.1-0.8c-1.2-0.6-1.7-1.5-1.6-3
	C21.6,27.9,22.6,26.5,23.6,26.2z"/>
<g>
	<g>
		<path d="M10.1,57.1c1.9,0,3.8,0,5.7,0c0.2,0,0.6,0.1,0.7,0.3c1.1,2.6,2.3,5.3,3,8c1.3,5-0.9,8.5-5.8,10.1
			c-1.1,0.3-2.2,1.8-2.3,3.3c-0.1,1.5,0.4,2.6,1.7,3.2c0.7,0.3,1.5,0.5,2.2,0.8c0.2,0.1,0.3,0.3,0.4,0.4c-0.2,0.1-0.3,0.3-0.5,0.3
			c-3.4,0-6.7,0-10.1,0c-0.2,0-0.4-0.2-0.5-0.3c0.2-0.1,0.3-0.4,0.5-0.4c0.7-0.3,1.3-0.4,2-0.7c2.1-1,2.4-3.8,0.9-5.5
			c-0.7-0.7-1.4-1-2.2-1.4C1.3,73.4-0.6,69.7,0.8,65c0.8-2.6,1.9-5,2.9-7.5c0.1-0.2,0.5-0.4,0.7-0.4C6.4,57,8.3,57.1,10.1,57.1z"/>
	</g>
</g>
<path d="M17.9,64.6c-0.6-2.6-1.6-5.1-2.5-7.7c-0.1-0.2-0.4-0.3-0.6-0.3c-1.6,0-3.1,0-4.7,0c-1.6,0-3.1,0-4.7,0
	c-0.2,0-0.5,0.2-0.6,0.3c-0.8,2.4-1.8,4.8-2.4,7.2c-1.2,4.6,0.4,8.1,4,9.7c0.2,0.1,1.3,0.3,3,0.3l3.3,0c0.3,0,0.5,0,0.8-0.2
	C17.3,72.5,18.9,69.2,17.9,64.6z"/>
</svg>
